<svg xmlns="http://www.w3.org/2000/svg" viewBox="0 0 556.44 153.6"><defs><style>.cls-1,.cls-2{fill:none;stroke:#e01e5a;stroke-miterlimit:10;}.cls-2{stroke-dasharray:5.01 5.01;}.cls-3{fill:#e01e5a;}.cls-4{fill:#fff;}.cls-5{fill:#111;}</style></defs><g id="Layer_2" data-name="Layer 2"><g id="LOGO_1_positivo"><g id="Elementi_grafici" data-name="Elementi grafici"><path class="cls-1" d="M45,38.45s.56-.69,1.63-1.89"/><path class="cls-2" d="M50,32.91c17.39-17.57,77.65-66.7,151.13,6.78C307.56,146.1,351.08,97.83,407.52,42"/><path class="cls-1" d="M409.32,40.2l1.77-1.75"/><circle class="cls-3" cx="43.48" cy="39.71" r="18.84"/><circle class="cls-3" cx="197" cy="39.9" r="18.62"/><circle class="cls-3" cx="413.49" cy="40.18" r="18.58"/></g><g id="CUNEO"><path class="cls-3" d="M4,82.59a49.37,49.37,0,0,1,11.2-16.15A51.74,51.74,0,0,1,32,55.69,55.82,55.82,0,0,1,53,51.84a36.27,36.27,0,0,1,13.4,2.33,35.25,35.25,0,0,1,10.23,6.08c1.16.91,2,1.32,2.52,1.23s1.21-.79,2.08-2.13l2.33-4.53a3.38,3.38,0,0,1,1.06-1.1,5,5,0,0,1,2-.26h7.58c1.29,0,2.07.18,2.33.55a5.19,5.19,0,0,1,.39,2.55V87.44a3.14,3.14,0,0,1-.46,2.07,3.36,3.36,0,0,1-2.2.46H83.12c-1.38,0-2.24-.2-2.56-.59a5.71,5.71,0,0,1-.87-2.13,32.1,32.1,0,0,0-4.44-10.78A22.85,22.85,0,0,0,67,68.83,25.4,25.4,0,0,0,54.57,66a22,22,0,0,0-13.79,4.46,28.48,28.48,0,0,0-9,12.66,54.09,54.09,0,0,0-3.17,19.51q0,11.34,3.14,19.39a26.84,26.84,0,0,0,9.06,12.37,23.73,23.73,0,0,0,14.34,4.3A28,28,0,0,0,68,135.86,25.36,25.36,0,0,0,77.23,128,28.13,28.13,0,0,0,82,116.51a6.83,6.83,0,0,1,1.06-2.79,3.31,3.31,0,0,1,2.5-.71H96.13c1.38,0,2.22.17,2.52.52a2.62,2.62,0,0,1,.26,2,43.85,43.85,0,0,1-6.73,19.58,38.13,38.13,0,0,1-15.37,13.46Q67,153.47,53,153.47a61.64,61.64,0,0,1-21.49-3.59,48.71,48.71,0,0,1-16.77-10.29A45.6,45.6,0,0,1,3.82,123.53,54.65,54.65,0,0,1,0,102.65,50,50,0,0,1,4,82.59Z"/><path class="cls-3" d="M176.79,68.8a4,4,0,0,1-2.69-.65,3.62,3.62,0,0,1-.68-2.59V58.25a7,7,0,0,1,.52-3.27c.34-.58,1.29-.88,2.85-.88h39.35c1.34,0,2.18.2,2.53.59a4.45,4.45,0,0,1,.52,2.65v8.22c0,1.43-.2,2.32-.59,2.69s-1.33.55-2.84.55H208.7a5.26,5.26,0,0,0-3,.58c-.48.39-.71,1.38-.71,3v40q0,20.85-11.11,31t-31.75,10.2q-13.2,0-21.49-3.2a29.33,29.33,0,0,1-12.82-9A33,33,0,0,1,121.54,128a75.81,75.81,0,0,1-1.72-16.58V71.91c0-1.43-.24-2.3-.71-2.63a5.32,5.32,0,0,0-2.72-.48H109a5.14,5.14,0,0,1-2.82-.49c-.41-.32-.61-1.22-.61-2.68v-8a4.59,4.59,0,0,1,.61-2.84,3.49,3.49,0,0,1,2.63-.72h49.32a3.29,3.29,0,0,1,2.27.55,3.73,3.73,0,0,1,.52,2.37v8.67a3.75,3.75,0,0,1-.59,2.53,3.93,3.93,0,0,1-2.59.58h-8.86c-1.64,0-2.64.24-3,.71a6.15,6.15,0,0,0-.52,3.17v36.51a55.2,55.2,0,0,0,1.91,15.67,17,17,0,0,0,6.6,9.55q4.69,3.19,13,3.2a27.57,27.57,0,0,0,11.78-2.39,17.31,17.31,0,0,0,8-7.93q2.91-5.54,2.91-14.93V72c0-1.43-.2-2.32-.61-2.69a4.37,4.37,0,0,0-2.69-.55Z"/><path class="cls-3" d="M227.73,68.8a3.87,3.87,0,0,1-2.17-.42c-.37-.28-.55-.92-.55-1.91V57.92c0-1.68.22-2.74.65-3.17s1.44-.65,3-.65h27.64a16.75,16.75,0,0,1,5.12.55,7.87,7.87,0,0,1,3,2.37l43.63,50.17c1,1.12,1.78,1.58,2.36,1.39s.88-1.7.88-4.5V71.45a3.55,3.55,0,0,0-.43-2.13c-.28-.35-.93-.52-2-.52h-8.48a4.42,4.42,0,0,1-2.65-.58,3.24,3.24,0,0,1-.72-2.53V57.54q0-2.26.75-2.85a4.93,4.93,0,0,1,2.88-.59h36.64a4.1,4.1,0,0,1,1.94.36c.43.24.65.83.65,1.78V65c0,1.69-.22,2.73-.65,3.14s-1.51.62-3.24.62h-6.73a3.16,3.16,0,0,0-2.43.68,4.3,4.3,0,0,0-.55,2.56V150.3a3.28,3.28,0,0,1-.48,2.13,3.11,3.11,0,0,1-2.17.52H316.8a6.76,6.76,0,0,1-3.56-.68,10.23,10.23,0,0,1-2.13-2L256.86,86.21c-1-1.25-1.82-1.67-2.36-1.26s-.81,2.15-.81,5.21v43a4.74,4.74,0,0,0,.52,2.76c.34.41,1.23.61,2.65.61h9.45a2.35,2.35,0,0,1,1.81.52,3.16,3.16,0,0,1,.46,2v9.13c0,1.47-.36,2.34-1.07,2.62a8.55,8.55,0,0,1-3.08.42H228.9a5.62,5.62,0,0,1-3.18-.58c-.47-.39-.71-1.42-.71-3.11v-8c0-1.51.26-2.39.78-2.65a7.33,7.33,0,0,1,2.91-.39h6.54c1.51,0,2.45-.22,2.81-.65a5,5,0,0,0,.55-2.91V72.1q0-2.46-.48-2.88c-.32-.28-1.29-.42-2.88-.42Z"/><path class="cls-3" d="M348.59,68.8c-1.26,0-2-.2-2.34-.58a4.31,4.31,0,0,1-.45-2.4V57c0-1.33.23-2.14.68-2.42A5.33,5.33,0,0,1,349,54.1h88.68c1.34,0,2.16.2,2.46.59a4.6,4.6,0,0,1,.46,2.52V87.7a5.72,5.72,0,0,1-.23,2.14q-.23.39-2,.39h-9.71c-1,0-1.52-.23-1.72-.68a5.86,5.86,0,0,1-.35-1.91,34,34,0,0,0-1.81-11.07,10.54,10.54,0,0,0-5.57-6q-3.94-1.81-11.07-1.81h-19a5.57,5.57,0,0,0-2.69.48c-.54.33-.81,1.16-.81,2.5v21A6.16,6.16,0,0,0,386,95.6c.28.47.94.71,2,.71h2.59q5.68,0,8.9-3.53a15.51,15.51,0,0,0,3.91-8.38,7.72,7.72,0,0,1,.52-2.1c.22-.46.76-.68,1.62-.68h5.83a3.56,3.56,0,0,1,2.29.48,3.52,3.52,0,0,1,.49,2.3v35.8a3.85,3.85,0,0,1-.42,2.2c-.28.34-1,.52-2.1.52h-5.7q-1.62,0-2-.75a9.39,9.39,0,0,1-.61-2.36,15.43,15.43,0,0,0-2.17-6,14.26,14.26,0,0,0-4.34-4.5,10.47,10.47,0,0,0-5.85-1.71h-2.53a2.77,2.77,0,0,0-2.14.78,4,4,0,0,0-.71,2.71v22.73c0,1.42.2,2.22.58,2.39a8.66,8.66,0,0,0,2.72.26h17.94q8.28,0,12.75-2.1a12,12,0,0,0,6.28-6.87,39.3,39.3,0,0,0,2-12.65,8.35,8.35,0,0,1,.36-2.75c.19-.37,1-.55,2.43-.55h8.74c1.29,0,2,.16,2.23.48a5.86,5.86,0,0,1,.29,2.37v34.3c0,1.21-.13,1.93-.39,2.14a4.29,4.29,0,0,1-2.2.32h-90.5a9.71,9.71,0,0,1-2.42-.19c-.41-.13-.62-.84-.62-2.14V138.52c0-1.08.13-1.69.39-1.82a5.72,5.72,0,0,1,1.94-.19H357a4.68,4.68,0,0,0,2.59-.42c.3-.28.45-1.13.45-2.56V71.32c0-1.16-.19-1.87-.58-2.13a4.87,4.87,0,0,0-2.4-.39Z"/><path class="cls-3" d="M455.46,82.33a45.52,45.52,0,0,1,26.8-26.74,66,66,0,0,1,43.86,0,45.59,45.59,0,0,1,26.76,26.74,56,56,0,0,1,3.56,20.32A54,54,0,0,1,552.72,123a47.14,47.14,0,0,1-10.65,16.12,48.3,48.3,0,0,1-16.5,10.62,58.2,58.2,0,0,1-21.37,3.75,60.52,60.52,0,0,1-21.94-3.75A45.52,45.52,0,0,1,455.46,123a56.27,56.27,0,0,1-3.56-20.33A56.21,56.21,0,0,1,455.46,82.33Zm26.38,35.18A37.11,37.11,0,0,0,486,129.16a19.71,19.71,0,0,0,18.19,10.26,22.08,22.08,0,0,0,11.36-2.68,19.39,19.39,0,0,0,7.25-7.58,37.29,37.29,0,0,0,3.86-11.65,88.49,88.49,0,0,0,1.16-14.86,76.65,76.65,0,0,0-1.33-14.88,37.1,37.1,0,0,0-4.17-11.62A20.91,20.91,0,0,0,515,68.57a23.2,23.2,0,0,0-21.65,0A20.83,20.83,0,0,0,486,76.15a37.1,37.1,0,0,0-4.17,11.62,76.65,76.65,0,0,0-1.33,14.88A76.88,76.88,0,0,0,481.84,117.51Z"/></g><g id="Living_Emtion_In" data-name="Living Emtion In"><path class="cls-4" d="M27.68,53c0-.24.07-.39.23-.45a1.53,1.53,0,0,1,.56-.09h3.36a2,2,0,0,0,1-.14,1.62,1.62,0,0,0,.32-.79l5.41-25.26c.07-.32.07-.52,0-.59s-.28-.1-.65-.1H34.35c-.3,0-.49-.06-.54-.17a1.48,1.48,0,0,1-.09-.63V24a1.39,1.39,0,0,1,.09-.59c0-.11.22-.16.5-.16H47.12a1,1,0,0,1,.57.12.8.8,0,0,1,.15.59v.88a1.06,1.06,0,0,1-.11.57c-.07.1-.24.15-.52.15H43.47c-.35,0-.55.05-.6.14a3.23,3.23,0,0,0-.18.57l-5.33,25a1.2,1.2,0,0,0,0,.94c.13.16.5.24,1.1.24h7.06a13,13,0,0,0,4.53-.67A6.06,6.06,0,0,0,53,49.46a15.11,15.11,0,0,0,2-4.58,1.66,1.66,0,0,1,.32-.67,1.36,1.36,0,0,1,.83-.17h.59a.6.6,0,0,1,.43.11.44.44,0,0,1,0,.37L55,53.86a1.52,1.52,0,0,1-.32.71,1.34,1.34,0,0,1-.86.18H28.52a1.63,1.63,0,0,1-.67-.1c-.11-.06-.17-.25-.17-.58Z"/><path class="cls-5" d="M65.6,51a2,2,0,0,0-.06.38,2.49,2.49,0,0,0,0,.37c0,.54.25.8.75.8a3.25,3.25,0,0,0,2.2-1.36,11.36,11.36,0,0,0,2-3.26.84.84,0,0,1,.3-.42.63.63,0,0,1,.52,0l.51.19a.59.59,0,0,1,.35.25.85.85,0,0,1-.1.55,14.19,14.19,0,0,1-3.16,4.77,5.88,5.88,0,0,1-4.07,1.87,3,3,0,0,1-2.22-.75,3.12,3.12,0,0,1-.76-2.32q0-.16,0-.45c0-.19,0-.35.06-.47l3.48-15.25c.07-.31.07-.5,0-.59a1.08,1.08,0,0,0-.65-.12H62.79a1.12,1.12,0,0,1-.68-.14C62,35,62,34.77,62,34.42v-.84c0-.3.06-.48.18-.56a1.17,1.17,0,0,1,.57-.11h6c.56,0,.88.05,1,.16a1.48,1.48,0,0,1-.06.89Zm1.84-27.45a2.49,2.49,0,1,1-.75,1.79A2.44,2.44,0,0,1,67.44,23.56Z"/><path class="cls-5" d="M88.69,36.37a2.23,2.23,0,0,1,.25-3.14,2.71,2.71,0,0,1,1.86-.7,3.86,3.86,0,0,1,2.28.72,5,5,0,0,1,1.62,2.09,8.11,8.11,0,0,1,.6,3.28A9.32,9.32,0,0,1,94,43.25a20.27,20.27,0,0,1-3.55,4.49,35.41,35.41,0,0,1-5,4A43.48,43.48,0,0,1,79.86,55a1.53,1.53,0,0,1-.51.17,1.44,1.44,0,0,1-.52-.19l-1-.59c-.15-.08-.23-.17-.23-.26a3.32,3.32,0,0,1,.06-.48c.12-.54.26-1.18.44-1.91a7,7,0,0,0,.28-1.61,10.43,10.43,0,0,0-.42-3,28.75,28.75,0,0,0-1-2.83c-.38-.93-.71-1.86-1-2.8a10,10,0,0,1-.42-2.88,4.45,4.45,0,0,1,.49-2.1,6.27,6.27,0,0,1,1.26-1.69,10.46,10.46,0,0,1,1.66-1.32,15.1,15.1,0,0,1,1.68-1,1.31,1.31,0,0,1,.53-.21c.08,0,.19.15.35.42l.21.34c.12.21.21.35.25.44s0,.2-.27.35a5.93,5.93,0,0,0-1.31,1.3,3.5,3.5,0,0,0-.65,2.19A8.52,8.52,0,0,0,80.09,40c.25.77.54,1.55.86,2.36a20.28,20.28,0,0,1,.86,2.77A16.12,16.12,0,0,1,82.19,49c0,.23,0,.52,0,.87A6.89,6.89,0,0,1,82,51c0,.23,0,.38.09.43s.27,0,.52-.18A46.57,46.57,0,0,0,88,47a22.11,22.11,0,0,0,3.72-4.28,7.71,7.71,0,0,0,1.35-4.09,5.85,5.85,0,0,0-.22-2.08c-.15-.29-.32-.44-.53-.44a1,1,0,0,0-.62.21,5.78,5.78,0,0,1-.68.42A2.24,2.24,0,0,1,90,37,1.68,1.68,0,0,1,88.69,36.37Z"/><path class="cls-5" d="M102.73,51a2,2,0,0,0-.06.38,2.49,2.49,0,0,0,0,.37c0,.54.25.8.75.8a3.25,3.25,0,0,0,2.2-1.36,11.59,11.59,0,0,0,2-3.26.84.84,0,0,1,.29-.42.65.65,0,0,1,.53,0l.5.19a.59.59,0,0,1,.36.25.85.85,0,0,1-.1.55A14.34,14.34,0,0,1,106,53.3a5.88,5.88,0,0,1-4.07,1.87,3,3,0,0,1-2.22-.75A3.12,3.12,0,0,1,99,52.1q0-.16,0-.45c0-.19,0-.35,0-.47l3.49-15.25c.07-.31.06-.5,0-.59a1.1,1.1,0,0,0-.65-.12H99.92a1.18,1.18,0,0,1-.69-.14q-.15-.13-.15-.66v-.84c0-.3,0-.48.17-.56a1.21,1.21,0,0,1,.58-.11h6c.56,0,.88.05,1,.16s.06.41-.05.89Zm1.84-27.45a2.49,2.49,0,1,1-.75,1.79A2.42,2.42,0,0,1,104.57,23.56Z"/><path class="cls-5" d="M121,32.91a1.73,1.73,0,0,1,.93.14c.09.1.09.35,0,.76l-.9,3.95c-.16.68-.19,1.05-.12,1.09s.38-.32.9-1.09a14.85,14.85,0,0,1,3.55-3.83,6.65,6.65,0,0,1,4-1.4,7.06,7.06,0,0,1,2.49.41,3.64,3.64,0,0,1,1.73,1.33,4.61,4.61,0,0,1,.74,2.44,12.09,12.09,0,0,1-.5,3.71L131,50.71a4.26,4.26,0,0,0-.16,1c0,.54.25.8.75.8a3.16,3.16,0,0,0,2.14-1.29,10.87,10.87,0,0,0,2-3.1,2,2,0,0,1,.33-.61c.1-.09.28-.1.53,0l.5.17a.69.69,0,0,1,.39.25q.08.15-.09.57a14.21,14.21,0,0,1-3.17,4.77,5.86,5.86,0,0,1-4.06,1.87,3,3,0,0,1-2.22-.75,3.12,3.12,0,0,1-.76-2.32,5.24,5.24,0,0,1,0-.56,3.5,3.5,0,0,1,.13-.66l2.69-10c.32-1.19.55-2.25.7-3.16a3.58,3.58,0,0,0-.18-2.18,1.76,1.76,0,0,0-1.74-.8A4.87,4.87,0,0,0,125.8,36a16.3,16.3,0,0,0-3,3.16,27,27,0,0,0-2.56,4.21,20.58,20.58,0,0,0-1.58,4.38l-1.39,6a2.81,2.81,0,0,1-.26.75c-.11.19-.37.28-.81.28h-1.64a2,2,0,0,1-1.06-.16c-.1-.11-.11-.4,0-.87L117.62,36c.08-.36.07-.58,0-.64a2.22,2.22,0,0,0-.83-.09H115c-.35,0-.56-.07-.62-.19a1.71,1.71,0,0,1-.1-.72v-.58a1.14,1.14,0,0,1,.13-.68c.08-.09.29-.14.63-.14Z"/><path class="cls-5" d="M139.07,58.84a8.83,8.83,0,0,1,1.51-2.09,10.43,10.43,0,0,1,1.88-1.54c.45-.3.71-.47.79-.54s0-.13-.14-.22a2.25,2.25,0,0,1-.65-.61,2.74,2.74,0,0,1-.54-1.78,4,4,0,0,1,1-2.63,7.39,7.39,0,0,1,2.63-2c.5-.24.74-.37.71-.4l-.65-.5a4.91,4.91,0,0,1-1.39-1.77,5.82,5.82,0,0,1-.48-2.45,8.22,8.22,0,0,1,.88-3.66,11.21,11.21,0,0,1,2.4-3.17,11.71,11.71,0,0,1,3.42-2.22,9.91,9.91,0,0,1,4-.82,11.82,11.82,0,0,1,2.58.25.79.79,0,0,0,.35,0c.05,0,.1-.11.16-.26a19.54,19.54,0,0,1,1.18-2.38,6,6,0,0,1,1.5-1.71,3.39,3.39,0,0,1,2-.64,3.31,3.31,0,0,1,1.57.38,3,3,0,0,1,1.12,1.05,2.88,2.88,0,0,1,.42,1.55,2.25,2.25,0,0,1-.64,1.7,2.21,2.21,0,0,1-1.59.61,2,2,0,0,1-1.45-.53,1.77,1.77,0,0,1-.56-1.31,5.6,5.6,0,0,1,0-.64,1.87,1.87,0,0,0,0-.4.15.15,0,0,0-.17-.14c-.35,0-.71.27-1.09.8A10.09,10.09,0,0,0,158.76,33c-.07.18-.09.29,0,.33l.27.17a4.42,4.42,0,0,1,1.72,1.87,6.42,6.42,0,0,1,.57,2.82,8.67,8.67,0,0,1-.82,3.65,11.11,11.11,0,0,1-5.52,5.4A9.69,9.69,0,0,1,151,48l-1,0c-.31,0-.61,0-.89-.09a5.36,5.36,0,0,0-1-.05,2.38,2.38,0,0,0-.84.3,6,6,0,0,0-1.52,1.14,2,2,0,0,0-.64,1.4c0,.56.39.89,1.18,1a23.44,23.44,0,0,0,2.9.15h3.82a11.58,11.58,0,0,1,3.47.46,4.18,4.18,0,0,1,2.3,1.66,6,6,0,0,1,.82,3.42,5.52,5.52,0,0,1-1.08,3.26,9.81,9.81,0,0,1-3,2.64,16.38,16.38,0,0,1-4.3,1.78,20.13,20.13,0,0,1-5.1.64,19.77,19.77,0,0,1-3.93-.36,5.8,5.8,0,0,1-2.8-1.31,3.55,3.55,0,0,1-1-2.74A5.19,5.19,0,0,1,139.07,58.84Zm3.9-.5a7.66,7.66,0,0,0-.51,2.37,1.94,1.94,0,0,0,.66,1.54,3.93,3.93,0,0,0,1.64.84,7.26,7.26,0,0,0,1.94.27,16.42,16.42,0,0,0,3.57-.4,13.43,13.43,0,0,0,3.23-1.16A7.25,7.25,0,0,0,155.83,60a3.75,3.75,0,0,0,.87-2.42,2.08,2.08,0,0,0-.84-1.91,5.81,5.81,0,0,0-2.9-.53h-5.45c-.36,0-.7,0-1,0a6.17,6.17,0,0,0-1.13,0,1.61,1.61,0,0,0-.74.51A7.39,7.39,0,0,0,143,58.34Zm5-13.82a2.37,2.37,0,0,0,.94,1.32,3.66,3.66,0,0,0,2.15.51,4.86,4.86,0,0,0,3.28-1.24,8.44,8.44,0,0,0,2.19-3.22,11.18,11.18,0,0,0,.79-4.15,10.94,10.94,0,0,0-.12-1.55,2.43,2.43,0,0,0-.72-1.42,2.9,2.9,0,0,0-2.06-.6A5.17,5.17,0,0,0,151,35.41a8.66,8.66,0,0,0-2.41,3.21,10,10,0,0,0-.89,4.16A6.59,6.59,0,0,0,147.94,44.52Z"/><path class="cls-4" d="M189,51.47c-.1.43-.09.7,0,.81a1.9,1.9,0,0,0,1,.16h7.89a13.07,13.07,0,0,0,4.56-.67,6,6,0,0,0,2.93-2.32,15.29,15.29,0,0,0,2-4.62,4.86,4.86,0,0,1,.22-.62c.07-.11.3-.17.71-.17H209a1.14,1.14,0,0,1,.59.09c.08.06.09.21,0,.45l-2.17,9.2a1.56,1.56,0,0,1-.36.79,1.79,1.79,0,0,1-1,.18H180.3a1.22,1.22,0,0,1-.57-.11c-.12-.07-.18-.24-.18-.52V53.4a1.6,1.6,0,0,1,.12-.78c.09-.12.32-.18.72-.18h3.31c.49,0,.78,0,.85-.15a2.19,2.19,0,0,0,.25-.74l5.71-25c.1-.43.08-.7,0-.8a2.22,2.22,0,0,0-1-.14h-3c-.39,0-.63-.07-.71-.19a1.65,1.65,0,0,1-.13-.78v-.67c0-.31.11-.5.31-.57a2.15,2.15,0,0,1,.7-.1h25.54a2.68,2.68,0,0,1,1.12.13q.19.14,0,.87l-1.82,8a2,2,0,0,1-.28.74c-.08.1-.37.15-.86.15h-.61c-.35,0-.51-.1-.48-.29s.06-.4.11-.64a11,11,0,0,0,.19-4,2.72,2.72,0,0,0-1.48-2,7.91,7.91,0,0,0-3.52-.61h-8.4c-.69,0-1.09.07-1.19.23a3.48,3.48,0,0,0-.35,1l-2.22,9.82c-.1.42-.1.69,0,.8s.41.17.95.17h1.89a6.59,6.59,0,0,0,3.94-1.08,6.52,6.52,0,0,0,2.24-2.83c.09-.23.17-.45.23-.64s.25-.28.59-.28h.65c.37,0,.58.06.62.17a1.57,1.57,0,0,1-.06.63l-2.35,10a3.09,3.09,0,0,1-.15.58c0,.12-.23.18-.58.18h-.68c-.35,0-.52-.11-.52-.34s0-.46,0-.71a4,4,0,0,0-.69-2.86c-.58-.75-1.66-1.13-3.26-1.13h-2.43c-.52,0-.83.05-.92.15a2.09,2.09,0,0,0-.28.77Z"/><path class="cls-5" d="M223.14,32.91a2.82,2.82,0,0,1,.8.06q.12.06,0,.63l-.84,3.7a4.71,4.71,0,0,0-.19,1.23c0,.16.32-.18.88-1a15.92,15.92,0,0,1,3.26-3.6,5.8,5.8,0,0,1,3.61-1.38q2.42,0,3.33,1.14a6.23,6.23,0,0,1,1,3.71c0,.52.07.78.17.79s.32-.25.65-.77a15.36,15.36,0,0,1,3-3.53,5.43,5.43,0,0,1,3.53-1.34,7.7,7.7,0,0,1,2.75.41,2.61,2.61,0,0,1,1.45,1.33,5,5,0,0,1,.29,2.44,21.63,21.63,0,0,1-.71,3.71l-2.78,10.29a4.26,4.26,0,0,0-.16,1c0,.54.25.8.75.8a3.17,3.17,0,0,0,2.17-1.33,11.25,11.25,0,0,0,2-3.18,1,1,0,0,1,.35-.51c.11-.07.32,0,.61.07l.26.06q.42.12.48.33a1.21,1.21,0,0,1-.17.72,13.59,13.59,0,0,1-3.13,4.64,5.77,5.77,0,0,1-4,1.81,3,3,0,0,1-2.22-.75,3.12,3.12,0,0,1-.76-2.32,5.24,5.24,0,0,1,0-.56,3.5,3.5,0,0,1,.13-.66l2.69-10c.32-1.18.62-2.24.9-3.17a4.68,4.68,0,0,0,.24-2.23c-.12-.55-.63-.82-1.52-.82A4.19,4.19,0,0,0,239.14,36a14.64,14.64,0,0,0-2.59,3.34,31.49,31.49,0,0,0-2.15,4.44,37.16,37.16,0,0,0-1.51,4.59l-1.41,5.57a.91.91,0,0,1-1.2.86h-1.59c-.65,0-1-.06-1-.18a2.86,2.86,0,0,1,.14-.92L231,40.89c.29-1.17.51-2.22.67-3.15a4.48,4.48,0,0,0-.08-2.24,1.38,1.38,0,0,0-1.48-.83,4.51,4.51,0,0,0-2.83,1.19A14.11,14.11,0,0,0,224.52,39a25.75,25.75,0,0,0-2.32,4.25,25.14,25.14,0,0,0-1.52,4.53l-1.4,6.09a2,2,0,0,1-.28.74c-.08.1-.37.15-.86.15h-1.76c-.63,0-1-.07-1-.2a3.6,3.6,0,0,1,.14-.94l4.05-17.45c.1-.42.1-.68,0-.79s-.41-.15-.94-.15h-1.39a1.49,1.49,0,0,1-.73-.12c-.13-.08-.19-.3-.19-.66v-.59a1.71,1.71,0,0,1,.11-.75c.08-.13.31-.19.69-.19Z"/><path class="cls-5" d="M255.43,41.53a15.52,15.52,0,0,1,2.74-4.69,13.3,13.3,0,0,1,4-3.19A10.47,10.47,0,0,1,267,32.49a9,9,0,0,1,4.42,1,7.34,7.34,0,0,1,2.91,2.83,8.23,8.23,0,0,1,1,4.12,16.15,16.15,0,0,1-1,5.65,15.6,15.6,0,0,1-2.74,4.69,13.3,13.3,0,0,1-4,3.19,10.35,10.35,0,0,1-4.81,1.17,9.13,9.13,0,0,1-4.42-1,7.36,7.36,0,0,1-2.91-2.84,8.09,8.09,0,0,1-1-4.11A15.82,15.82,0,0,1,255.43,41.53Zm3.8,8.61a5.21,5.21,0,0,0,1.25,2.27,3.09,3.09,0,0,0,2.31.87,5.38,5.38,0,0,0,3.2-1.07,10,10,0,0,0,2.6-2.91,16.33,16.33,0,0,0,1.73-4.13,18,18,0,0,0,.62-4.7,11.3,11.3,0,0,0-.38-2.95,5,5,0,0,0-1.25-2.27,3.13,3.13,0,0,0-2.32-.87,5.29,5.29,0,0,0-3.2,1.07,9.74,9.74,0,0,0-2.6,2.91,15.83,15.83,0,0,0-1.73,4.11,18,18,0,0,0-.62,4.72A10.94,10.94,0,0,0,259.23,50.14Z"/><path class="cls-5" d="M285.15,32.91c.24,0,.37,0,.4-.11a2.09,2.09,0,0,0,.11-.38l.65-2.79c.07-.28.14-.44.21-.47a2.65,2.65,0,0,1,.54-.14,5.66,5.66,0,0,0,1.22-.34,10.23,10.23,0,0,0,1-.46l.32-.16a.78.78,0,0,1,.24-.09l.28,0c.18,0,.29,0,.31.07a.48.48,0,0,1,0,.33l-.94,4.14a.81.81,0,0,0,0,.34c0,.05.14.08.37.08h3.72c.31,0,.49,0,.55.1a1.31,1.31,0,0,1,.08.59v1c0,.29,0,.46-.07.51a1,1,0,0,1-.52.08h-4.32c-.21,0-.33,0-.36.07a1.47,1.47,0,0,0-.1.33l-3.32,14.63c-.09.35-.17.71-.25,1.08a1.55,1.55,0,0,0,0,.94c.09.25.37.38.82.38a3.25,3.25,0,0,0,1.75-.61,7.47,7.47,0,0,0,1.73-1.66l.39-.48a.37.37,0,0,1,.45-.11l.74.27a.59.59,0,0,1,.36.26c.05.09,0,.28-.13.54a9.68,9.68,0,0,1-2.64,3.1,6.4,6.4,0,0,1-4,1.29,3.31,3.31,0,0,1-3-1.2,3.67,3.67,0,0,1-.41-2.92l3.69-15.43c.06-.21.06-.34,0-.4s-.21-.08-.46-.08h-2.75c-.18,0-.29,0-.34-.15a1.25,1.25,0,0,1-.06-.44V33.54a1.13,1.13,0,0,1,.08-.5c0-.09.18-.13.4-.13Z"/><path class="cls-5" d="M302.6,51c0,.11,0,.24-.06.38s0,.26,0,.37c0,.54.25.8.76.8a3.21,3.21,0,0,0,2.19-1.36,11.38,11.38,0,0,0,2-3.26.84.84,0,0,1,.29-.42.63.63,0,0,1,.52,0l.51.19a.63.63,0,0,1,.36.25.88.88,0,0,1-.11.55,14,14,0,0,1-3.16,4.77,5.86,5.86,0,0,1-4.06,1.87,3,3,0,0,1-2.23-.75,3.16,3.16,0,0,1-.76-2.32c0-.11,0-.26,0-.45s0-.35.05-.47l3.49-15.25c.06-.31.06-.5,0-.59a1.08,1.08,0,0,0-.65-.12h-1.93a1.12,1.12,0,0,1-.68-.14c-.11-.09-.16-.31-.16-.66v-.84c0-.3.06-.48.18-.56a1.19,1.19,0,0,1,.58-.11h6c.56,0,.88.05,1,.16s.06.41-.05.89Zm1.84-27.45a2.45,2.45,0,0,1,1.78-.73,2.41,2.41,0,0,1,1.78.73,2.51,2.51,0,0,1,0,3.56,2.39,2.39,0,0,1-1.78.75,2.52,2.52,0,0,1-1.78-4.31Z"/><path class="cls-5" d="M314.77,41.53a15.73,15.73,0,0,1,2.74-4.69,13.43,13.43,0,0,1,4-3.19,10.5,10.5,0,0,1,4.81-1.16,9,9,0,0,1,4.42,1,7.21,7.21,0,0,1,2.91,2.83,8.13,8.13,0,0,1,1,4.12,15.93,15.93,0,0,1-1,5.65A15.2,15.2,0,0,1,331,50.81a13.3,13.3,0,0,1-4,3.19,10.33,10.33,0,0,1-4.81,1.17,9.16,9.16,0,0,1-4.42-1,7.27,7.27,0,0,1-2.9-2.84,8.09,8.09,0,0,1-1-4.11A16,16,0,0,1,314.77,41.53Zm3.8,8.61a5.21,5.21,0,0,0,1.25,2.27,3.12,3.12,0,0,0,2.31.87,5.4,5.4,0,0,0,3.21-1.07,10,10,0,0,0,2.59-2.91,16,16,0,0,0,1.73-4.13,17.58,17.58,0,0,0,.62-4.7,10.89,10.89,0,0,0-.38-2.95,5,5,0,0,0-1.25-2.27,3.13,3.13,0,0,0-2.32-.87,5.33,5.33,0,0,0-3.2,1.07,9.72,9.72,0,0,0-2.59,2.91,15.83,15.83,0,0,0-1.73,4.11,17.62,17.62,0,0,0-.62,4.72A10.94,10.94,0,0,0,318.57,50.14Z"/><path class="cls-5" d="M347.08,32.91a1.78,1.78,0,0,1,.94.14c.09.1.08.35,0,.76l-.91,3.95c-.15.68-.19,1.05-.11,1.09s.37-.32.89-1.09a14.87,14.87,0,0,1,3.56-3.83,6.6,6.6,0,0,1,4-1.4,7.06,7.06,0,0,1,2.49.41,3.64,3.64,0,0,1,1.73,1.33,4.61,4.61,0,0,1,.73,2.44,12.09,12.09,0,0,1-.5,3.71l-2.77,10.29a4.34,4.34,0,0,0-.17,1c0,.54.25.8.76.8a3.2,3.2,0,0,0,2.14-1.29,11.06,11.06,0,0,0,1.95-3.1,2.2,2.2,0,0,1,.34-.61c.1-.09.27-.1.52,0l.51.17a.69.69,0,0,1,.39.25.92.92,0,0,1-.1.57,14,14,0,0,1-3.16,4.77,5.86,5.86,0,0,1-4.06,1.87,3.05,3.05,0,0,1-2.23-.75,3.16,3.16,0,0,1-.75-2.32,5.24,5.24,0,0,1,0-.56,3.56,3.56,0,0,1,.12-.66l2.69-10a30.18,30.18,0,0,0,.7-3.16,3.67,3.67,0,0,0-.17-2.18,1.77,1.77,0,0,0-1.75-.8A4.89,4.89,0,0,0,351.92,36a16.93,16.93,0,0,0-3,3.16,26.94,26.94,0,0,0-2.55,4.21,21.21,21.21,0,0,0-1.59,4.38l-1.38,6a2.81,2.81,0,0,1-.26.75c-.11.19-.38.28-.81.28H340.7a2,2,0,0,1-1.06-.16c-.11-.11-.11-.4,0-.87L343.74,36c.09-.36.08-.58,0-.64a2.18,2.18,0,0,0-.83-.09h-1.72c-.35,0-.56-.07-.62-.19a1.94,1.94,0,0,1-.09-.72v-.58a1.24,1.24,0,0,1,.12-.68,1,1,0,0,1,.63-.14Z"/><path class="cls-5" d="M380.86,47.09a7.48,7.48,0,0,0-2-1.45c-.82-.41-1.7-.81-2.62-1.2a22.75,22.75,0,0,1-2.61-1.32,6.92,6.92,0,0,1-2-1.76,4.1,4.1,0,0,1-.79-2.57,4.75,4.75,0,0,1,.9-2.93,6.91,6.91,0,0,1,2.27-2,11.45,11.45,0,0,1,2.93-1.12,12.63,12.63,0,0,1,2.85-.36,10.06,10.06,0,0,1,3.62.61,5.6,5.6,0,0,1,2.44,1.74,4.37,4.37,0,0,1,.87,2.73,2.9,2.9,0,0,1-.63,2,2.11,2.11,0,0,1-1.64.71,2.46,2.46,0,0,1-1.62-.51,1.64,1.64,0,0,1-.61-1.29,1.72,1.72,0,0,1,.32-1.17,3.52,3.52,0,0,1,.63-.56.69.69,0,0,0,.31-.63c0-.65-.39-1.1-1.18-1.35a8.61,8.61,0,0,0-2.51-.37,8.91,8.91,0,0,0-2.54.36,4.9,4.9,0,0,0-2,1.11,2.59,2.59,0,0,0-.79,1.93,2.26,2.26,0,0,0,.78,1.76,7.91,7.91,0,0,0,2,1.27c.81.38,1.67.76,2.58,1.16a17,17,0,0,1,2.58,1.42,7,7,0,0,1,2,2,6.06,6.06,0,0,1,0,6,6.75,6.75,0,0,1-2.19,2.16A10.89,10.89,0,0,1,379,54.79a15.08,15.08,0,0,1-3.79.46,10.32,10.32,0,0,1-4.06-.75,6.67,6.67,0,0,1-2.79-2,4.82,4.82,0,0,1-1-3,3.41,3.41,0,0,1,.79-2.29,2.43,2.43,0,0,1,1.9-.94,2.21,2.21,0,0,1,1.56.57,2,2,0,0,1,.62,1.57,1.5,1.5,0,0,1-.46,1.25,4.47,4.47,0,0,1-.93.54.63.63,0,0,0-.46.61,1.72,1.72,0,0,0,.71,1.37,4.91,4.91,0,0,0,1.82.88,8.35,8.35,0,0,0,2.3.31A7.79,7.79,0,0,0,380,52a3.65,3.65,0,0,0,1.66-2.88A2.88,2.88,0,0,0,380.86,47.09Z"/><path class="cls-4" d="M403.24,53a.59.59,0,0,1,.14-.47.86.86,0,0,1,.49-.11h3.44a2.13,2.13,0,0,0,.93-.13c.14-.08.25-.33.35-.73l5.57-25.14c.09-.41.09-.66,0-.75a2,2,0,0,0-1-.13H410c-.27,0-.43,0-.48-.13a1.37,1.37,0,0,1-.07-.52V24a1,1,0,0,1,.13-.62c.08-.09.28-.13.59-.13h12.39a1.13,1.13,0,0,1,.59.11c.11.08.16.28.16.6v.92c0,.31-.05.5-.16.57a1.24,1.24,0,0,1-.64.11h-3.23c-.43,0-.68.06-.74.2a5.15,5.15,0,0,0-.18.72L412.83,51.6c-.1.4-.08.64,0,.72a2.27,2.27,0,0,0,.95.12h2.77c.45,0,.72.06.8.19a1.85,1.85,0,0,1,.13.86V54a1.28,1.28,0,0,1-.11.63c-.07.11-.26.17-.57.17H404a1.15,1.15,0,0,1-.64-.13c-.1-.08-.15-.28-.15-.59Z"/><path class="cls-5" d="M430.66,32.91a1.78,1.78,0,0,1,.94.14c.09.1.08.35,0,.76l-.91,3.95c-.15.68-.19,1.05-.11,1.09s.37-.32.89-1.09A14.87,14.87,0,0,1,435,33.93a6.6,6.6,0,0,1,4-1.4,7.06,7.06,0,0,1,2.49.41,3.64,3.64,0,0,1,1.73,1.33,4.61,4.61,0,0,1,.73,2.44,12.09,12.09,0,0,1-.5,3.71l-2.77,10.29a4.34,4.34,0,0,0-.17,1c0,.54.25.8.76.8a3.2,3.2,0,0,0,2.14-1.29,11.06,11.06,0,0,0,1.95-3.1,2.2,2.2,0,0,1,.34-.61c.09-.09.27-.1.52,0l.51.17a.69.69,0,0,1,.39.25.92.92,0,0,1-.1.57,14.19,14.19,0,0,1-3.16,4.77,5.88,5.88,0,0,1-4.06,1.87,3,3,0,0,1-2.23-.75,3.16,3.16,0,0,1-.76-2.32c0-.11,0-.3,0-.56a3.56,3.56,0,0,1,.12-.66l2.69-10a30.18,30.18,0,0,0,.7-3.16,3.67,3.67,0,0,0-.17-2.18,1.77,1.77,0,0,0-1.75-.8A4.89,4.89,0,0,0,435.5,36a16.61,16.61,0,0,0-3,3.16A26.2,26.2,0,0,0,430,43.33a20.11,20.11,0,0,0-1.59,4.38l-1.38,6a2.81,2.81,0,0,1-.26.75c-.11.19-.38.28-.81.28h-1.64a2,2,0,0,1-1.06-.16c-.11-.11-.11-.4,0-.87L427.32,36c.09-.36.08-.58,0-.64a2.18,2.18,0,0,0-.83-.09h-1.72c-.35,0-.56-.07-.62-.19a1.94,1.94,0,0,1-.09-.72v-.58a1.24,1.24,0,0,1,.12-.68,1,1,0,0,1,.63-.14Z"/><path class="cls-4" d="M142.69,54.1a1.55,1.55,0,0,0,.42.34c.17.09.21.16.14.23s-.34.24-.79.53a10.51,10.51,0,0,0-1.88,1.54,8.83,8.83,0,0,0-1.51,2.09,5.19,5.19,0,0,0-.6,2.42,3.51,3.51,0,0,0,1,2.74,5.71,5.71,0,0,0,2.8,1.31,21.06,21.06,0,0,0,9-.28,16.52,16.52,0,0,0,4.3-1.78,9.68,9.68,0,0,0,3-2.64,5.49,5.49,0,0,0,1.08-3.26,6.42,6.42,0,0,0-.68-3.2ZM155.82,60a7.3,7.3,0,0,1-2.33,1.83A13.61,13.61,0,0,1,150.27,63a16,16,0,0,1-3.57.4,7.67,7.67,0,0,1-1.94-.26,4.18,4.18,0,0,1-1.64-.84,2,2,0,0,1-.66-1.55,7.9,7.9,0,0,1,.5-2.37,7.64,7.64,0,0,1,1.66-2.71,1.57,1.57,0,0,1,.74-.5,4.72,4.72,0,0,1,1.13,0l1,0H153a5.83,5.83,0,0,1,2.9.52,2.08,2.08,0,0,1,.84,1.91A3.7,3.7,0,0,1,155.82,60Z"/></g></g></g></svg>