<?xml version="1.0" standalone="no"?>
<!DOCTYPE svg PUBLIC "-//W3C//DTD SVG 20010904//EN"
 "http://www.w3.org/TR/2001/REC-SVG-20010904/DTD/svg10.dtd">
<svg version="1.0" xmlns="http://www.w3.org/2000/svg"
 width="2224.000000pt" height="2224.000000pt" viewBox="0 0 2224.000000 2224.000000"
 preserveAspectRatio="xMidYMid meet">
<metadata>
Created by potrace 1.14, written by Peter Selinger 2001-2017
</metadata>
<g transform="translate(0.000000,2224.000000) scale(0.100000,-0.100000)"
fill="#000000" stroke="none">
<path d="M4630 14187 c-3 -3 -43 -8 -90 -12 -93 -7 -100 -9 -100 -31 0 -13 14
-14 93 -9 97 7 111 12 105 40 -1 9 -5 15 -8 12z"/>
<path d="M4840 14171 c0 -19 6 -21 78 -23 42 0 86 -1 97 -2 14 0 20 6 20 19 0
18 -8 20 -97 23 -94 4 -98 3 -98 -17z"/>
<path d="M5241 14151 c-12 -21 1 -27 81 -36 18 -3 49 -7 69 -10 38 -7 60 8 42
26 -10 10 -28 14 -112 23 -29 4 -57 9 -62 11 -4 3 -13 -3 -18 -14z"/>
<path d="M4228 14135 c-2 -3 -22 -7 -44 -10 -58 -8 -135 -29 -135 -38 1 -4 1
-13 1 -21 0 -12 6 -13 33 -5 17 6 44 12 59 14 15 2 45 9 66 15 33 8 39 14 35
30 -6 21 -7 23 -15 15z"/>
<path d="M5630 14073 c0 -14 17 -23 73 -37 93 -24 121 -25 125 -5 2 12 -7 19
-35 24 -21 4 -40 7 -43 7 -3 0 -20 6 -39 14 -47 20 -81 18 -81 -3z"/>
<path d="M3747 14010 c-87 -30 -92 -33 -84 -54 6 -14 11 -14 49 0 24 9 48 17
53 18 64 16 92 30 88 46 -6 22 -15 21 -106 -10z"/>
<path d="M6019 13977 c-12 -29 -2 -37 69 -63 43 -15 82 -31 88 -36 7 -5 17 -2
25 8 11 13 10 17 -2 25 -24 16 -177 72 -180 66z"/>
<path d="M3450 13899 c-8 -5 -51 -25 -94 -45 -72 -32 -78 -37 -63 -51 14 -14
18 -14 39 -2 13 8 51 26 86 39 34 14 62 29 62 35 0 21 -15 32 -30 24z"/>
<path d="M6387 13813 c-15 -14 -4 -24 75 -63 89 -44 111 -49 106 -23 -2 10
-35 34 -78 55 -76 39 -92 43 -103 31z"/>
<path d="M3049 13701 c-127 -73 -124 -71 -105 -89 15 -15 18 -15 26 -2 5 8 10
11 10 6 0 -5 8 -2 18 6 9 9 41 28 70 43 36 19 51 32 48 42 -3 8 -6 17 -6 19 0
8 -15 2 -61 -25z"/>
<path d="M6741 13622 c-9 -16 -4 -22 29 -38 22 -10 40 -22 40 -26 0 -5 6 -8
13 -8 6 0 23 -9 37 -20 30 -24 46 -25 54 -5 5 15 -23 37 -120 91 -41 23 -44
23 -53 6z"/>
<path d="M2677 13468 c-42 -29 -77 -55 -77 -58 0 -3 4 -11 9 -18 6 -11 28 0
93 45 68 47 82 61 72 71 -7 7 -15 12 -16 12 -2 0 -39 -24 -81 -52z"/>
<path d="M7077 13406 c-8 -20 144 -127 161 -114 6 6 12 14 12 17 0 9 -145 111
-158 111 -6 0 -12 -6 -15 -14z"/>
<path d="M1688 13355 c-2 -1 -28 -5 -58 -9 -78 -8 -244 -65 -284 -96 -6 -5
-38 -31 -71 -57 -76 -60 -83 -66 -134 -132 -37 -48 -92 -142 -91 -156 0 -3 -6
-18 -13 -33 -40 -78 -60 -254 -44 -377 17 -130 95 -300 174 -383 18 -18 17
-19 -19 -20 -33 -1 -48 -15 -43 -41 2 -9 4 -24 4 -33 1 -14 12 -17 79 -16 117
2 155 -16 86 -41 -20 -7 -57 -23 -83 -34 -25 -12 -48 -21 -51 -22 -3 0 -9 -3
-15 -7 -5 -3 -37 -21 -70 -38 -237 -128 -476 -328 -632 -530 -32 -41 -61 -76
-65 -78 -5 -2 -8 -7 -8 -12 0 -5 -18 -36 -40 -69 -119 -178 -244 -496 -276
-700 -3 -18 -7 -42 -9 -53 -27 -141 -27 -594 0 -698 2 -8 6 -31 9 -50 17 -112
81 -329 128 -440 34 -78 109 -223 139 -268 16 -24 29 -45 29 -47 0 -3 6 -13
14 -22 8 -10 35 -45 60 -78 42 -57 195 -218 247 -260 13 -11 47 -39 76 -62 28
-24 56 -43 62 -43 6 0 11 -4 11 -8 0 -4 15 -16 33 -27 17 -10 34 -21 37 -24 3
-4 16 -12 30 -19 14 -7 39 -21 55 -32 17 -11 39 -24 50 -29 11 -5 53 -25 94
-45 41 -20 78 -36 83 -36 4 0 27 -9 51 -19 46 -21 175 -62 272 -87 19 -5 170
-34 205 -39 135 -21 245 -29 410 -28 233 0 381 16 609 67 10 2 41 12 67 21 27
9 56 18 65 20 74 15 315 136 412 206 37 27 69 49 72 49 6 0 87 74 152 139 100
100 205 244 269 371 35 69 80 177 89 210 1 3 7 18 14 34 6 16 13 36 14 45 1 9
5 21 9 26 3 6 12 37 19 70 7 33 14 65 15 70 26 111 35 248 17 266 -18 18 -66
21 -318 22 -212 0 -255 -2 -281 -16 -36 -19 -57 -63 -74 -155 -52 -291 -242
-564 -496 -712 -92 -54 -245 -110 -344 -125 -19 -3 -48 -8 -65 -11 -42 -7
-295 -7 -325 0 -14 4 -38 9 -55 11 -96 17 -283 98 -355 153 -32 24 -180 171
-206 204 -21 26 -101 164 -123 213 -32 68 -92 254 -107 330 -23 116 -33 187
-41 285 -8 107 -8 446 1 505 4 28 8 57 8 65 0 13 10 67 34 196 9 49 63 225 89
289 56 140 137 264 244 374 69 71 200 171 225 171 5 0 17 6 25 13 19 16 161
64 211 72 19 3 49 7 65 10 33 5 225 6 265 1 20 -2 107 -16 130 -21 67 -13 251
-90 258 -107 2 -4 8 -8 13 -8 17 0 121 -83 173 -139 28 -29 57 -59 64 -66 6
-8 12 -16 12 -20 0 -3 8 -15 18 -25 52 -56 170 -320 188 -420 14 -76 41 -127
74 -138 31 -11 568 -9 592 2 10 4 20 18 24 29 10 30 12 1325 2 1362 -15 58
-17 58 -254 58 -195 -1 -218 -2 -241 -19 -14 -11 -49 -65 -77 -120 -91 -181
-131 -209 -212 -148 -21 16 -41 31 -44 35 -14 15 -120 89 -130 89 -5 0 -10 4
-10 8 0 5 -47 33 -105 62 -88 46 -102 56 -87 65 59 34 156 164 174 232 5 18 1
23 -24 28 -35 8 -29 12 -61 -50 -14 -27 -42 -69 -63 -93 -31 -34 -46 -44 -74
-45 -28 -2 -36 2 -38 19 -2 11 18 108 43 215 26 107 48 201 50 209 2 8 11 44
20 80 8 36 18 74 20 85 2 11 12 51 21 88 9 37 13 71 10 75 -9 8 -293 8 -302
-1 -10 -10 -11 -50 -2 -69 6 -13 19 -16 55 -14 67 4 84 -6 73 -44 -5 -16 -7
-30 -4 -30 3 0 0 -8 -5 -17 -5 -10 -11 -31 -14 -48 -11 -56 -18 -90 -23 -107
-3 -9 -7 -25 -9 -36 -5 -30 -66 -294 -72 -317 -3 -11 -6 -39 -7 -62 -1 -40 -2
-41 -31 -37 -16 3 -48 8 -70 11 -40 5 -82 22 -57 23 6 0 12 5 12 11 0 6 12 28
28 48 85 113 129 256 129 423 1 344 -224 637 -559 728 -62 17 -229 34 -240 25z"/>
<path d="M7725 13324 c-38 -9 -97 -26 -130 -39 -33 -13 -78 -25 -100 -26 -65
-2 -75 -8 -75 -38 0 -21 -16 -44 -63 -92 -157 -160 -228 -332 -222 -548 3
-121 8 -155 36 -229 27 -76 55 -128 104 -198 l43 -60 -64 0 c-35 -1 -67 -3
-70 -7 -4 -3 -6 -18 -6 -32 0 -14 -3 -25 -7 -26 -3 0 -44 -1 -91 -3 -147 -5
-149 -9 -149 -296 -1 -238 4 -261 61 -278 42 -13 138 -21 138 -11 0 4 15 4 33
0 17 -4 44 -4 59 0 16 4 30 3 33 -1 3 -5 11 -7 18 -4 21 8 127 10 127 2 0 -4
6 -5 13 -2 20 7 87 11 87 4 0 -3 10 -6 22 -7 23 -2 40 -23 49 -63 7 -32 3
-1857 -4 -1890 -3 -14 -8 -41 -11 -60 -10 -63 -17 -94 -32 -150 -8 -30 -16
-60 -17 -66 -2 -7 -8 -18 -14 -25 -6 -8 -13 -23 -15 -34 -1 -11 -5 -22 -8 -25
-3 -3 -16 -26 -30 -53 -14 -26 -39 -64 -57 -84 -18 -19 -34 -39 -35 -42 -8
-17 -116 -104 -163 -131 -50 -28 -225 -94 -225 -85 0 3 -12 0 -26 -5 -78 -30
-395 -34 -514 -6 -41 9 -82 19 -91 21 -31 7 -124 49 -164 74 -50 31 -185 168
-185 187 0 8 -4 14 -8 14 -16 0 -84 166 -98 239 -1 7 -7 34 -13 60 -10 44 -16
72 -26 136 -3 17 -8 46 -12 65 -11 64 -15 1826 -3 1869 5 21 18 42 28 46 27
11 122 22 122 15 0 -4 17 -4 38 -1 20 4 51 4 67 1 17 -3 51 -3 77 0 26 4 54 2
63 -2 8 -5 15 -5 15 -1 0 5 26 7 57 6 142 -4 144 -1 144 290 0 122 -4 234 -9
248 -6 14 -24 32 -42 39 -17 7 -45 26 -61 41 -45 42 -95 52 -284 55 -206 5
-230 10 -231 49 -1 22 9 39 38 67 22 21 47 38 56 39 9 1 62 2 117 4 127 3 140
6 206 41 131 70 220 205 225 340 1 41 -2 76 -7 80 -5 3 -9 14 -9 24 0 10 -20
40 -45 66 l-44 48 26 48 c43 79 73 89 73 23 0 -67 91 -98 142 -47 41 41 25
132 -30 164 -86 51 -165 10 -232 -119 -26 -52 -35 -61 -53 -57 -49 11 -155 5
-209 -10 -68 -20 -160 -78 -210 -133 -31 -34 -78 -110 -84 -135 -1 -5 -2 -9
-4 -10 -7 -9 -12 -52 -12 -105 -1 -66 26 -128 72 -166 l22 -19 -31 -19 c-17
-10 -34 -19 -36 -19 -13 0 -60 -50 -80 -85 -23 -40 -27 -90 -10 -128 4 -10 5
-20 2 -23 -7 -8 -330 -8 -337 -1 -3 3 12 23 33 46 20 22 37 44 37 50 0 5 4 11
10 13 5 2 23 30 39 63 23 45 27 62 19 73 -20 23 -52 9 -73 -33 -39 -76 -88
-131 -130 -145 -67 -22 -68 -4 -9 208 38 137 42 154 50 191 3 14 7 28 10 33 3
4 7 16 9 25 2 10 8 37 13 61 16 70 9 153 -16 194 -46 74 -178 98 -282 52 -51
-23 -152 -120 -190 -182 -27 -45 -45 -55 -37 -19 22 88 43 194 40 202 -3 9
-289 13 -298 4 -4 -5 -8 -39 -6 -66 1 -22 5 -23 72 -23 38 0 68 -4 65 -8 -3
-5 -8 -23 -11 -40 -7 -42 -62 -279 -74 -319 -5 -18 -8 -33 -6 -33 3 0 0 -11
-5 -26 -6 -14 -12 -38 -15 -54 -5 -27 -52 -229 -60 -260 -4 -12 -25 -15 -120
-14 -64 1 -125 -1 -136 -3 -23 -6 -47 -39 -55 -74 -5 -27 -6 -398 0 -442 6
-46 28 -61 96 -62 33 0 60 -2 60 -5 0 -7 167 -3 179 5 6 3 11 3 11 -2 0 -4 33
-7 72 -6 90 2 123 -10 137 -49 7 -20 11 -329 12 -916 1 -903 1 -965 13 -1062
4 -30 9 -73 12 -95 4 -35 23 -145 38 -225 13 -71 73 -257 86 -270 3 -3 16 -30
30 -60 54 -120 200 -305 306 -390 107 -86 323 -195 444 -225 50 -13 67 -18 80
-22 8 -3 24 -8 35 -10 11 -2 45 -8 75 -14 30 -7 66 -13 80 -14 14 -2 39 -6 57
-9 87 -16 625 -32 646 -19 5 3 35 7 66 9 58 3 131 12 166 19 11 3 32 7 48 10
57 11 83 16 99 21 9 3 25 7 36 9 30 5 183 55 196 63 6 3 16 7 22 8 18 3 186
88 234 118 192 123 368 317 454 501 16 33 33 69 38 79 24 45 83 237 94 306 3
14 9 48 14 75 30 164 32 221 34 1200 1 694 4 905 13 922 16 28 64 43 131 40
28 -1 52 2 52 6 0 5 5 5 11 1 14 -8 139 -11 139 -3 0 3 12 4 28 2 15 -2 32 -4
37 -4 120 3 140 14 150 81 11 73 8 437 -4 459 -7 11 -7 22 -2 25 7 5 31 93 47
171 43 223 136 424 249 540 33 34 69 66 80 70 121 48 157 3 123 -155 -10 -47
-20 -92 -22 -100 -16 -60 -27 -107 -28 -120 0 -8 -5 -21 -11 -27 -5 -7 -7 -13
-4 -13 3 0 1 -15 -4 -32 -5 -18 -12 -44 -15 -58 -24 -117 -62 -244 -74 -251
-8 -4 -26 -10 -40 -13 -41 -9 -53 -41 -56 -154 -1 -57 -5 -106 -7 -109 -3 -2
-20 10 -39 27 -48 46 -67 55 -75 34 -6 -16 15 -40 91 -99 28 -22 29 -25 29
-116 0 -111 7 -136 44 -150 30 -12 143 -18 143 -8 0 3 12 4 28 2 15 -2 41 -5
57 -6 17 -1 36 -6 43 -10 7 -5 19 -4 27 3 19 16 175 6 186 -12 5 -7 9 -24 10
-38 1 -14 3 -35 4 -48 2 -19 -2 -23 -16 -19 -10 3 -23 -1 -29 -8 -8 -10 -4
-18 17 -33 l29 -20 -1 -1229 c-1 -1304 1 -1259 -45 -1279 -8 -4 -103 -8 -210
-9 -107 -1 -210 -5 -228 -9 -56 -13 -60 -33 -57 -286 1 -124 6 -235 10 -247
16 -47 20 -47 840 -48 461 0 787 3 814 9 74 17 75 24 76 297 0 229 -1 240 -21
260 -20 20 -33 21 -270 24 -137 2 -255 5 -263 6 -7 1 -20 18 -28 36 -12 30
-14 51 -12 118 0 11 0 405 0 875 0 470 2 875 3 900 2 25 4 55 5 66 0 12 9 32
19 44 l18 23 42 -28 c23 -15 42 -31 42 -34 0 -4 12 -20 28 -37 15 -16 61 -69
102 -119 41 -49 82 -97 90 -105 8 -9 24 -27 35 -41 75 -90 233 -277 245 -289
8 -9 44 -52 80 -95 36 -44 72 -87 80 -95 8 -9 33 -38 55 -65 22 -27 58 -70 80
-95 22 -26 60 -70 85 -100 25 -29 50 -58 55 -64 6 -6 32 -38 60 -71 27 -33 55
-65 60 -71 6 -6 27 -30 46 -54 41 -50 50 -61 110 -131 26 -30 88 -103 139
-164 51 -60 112 -132 135 -160 24 -27 87 -102 140 -165 53 -63 107 -126 118
-140 19 -22 54 -63 142 -168 11 -13 29 -34 40 -46 11 -12 38 -44 60 -71 22
-27 58 -69 79 -94 22 -25 47 -55 55 -65 60 -72 119 -127 155 -142 33 -14 77
-17 236 -19 109 -1 201 3 208 8 6 5 12 6 12 3 0 -14 28 20 35 43 10 34 12 81
3 87 -4 3 -3 16 2 29 6 15 6 27 -1 30 -5 4 -7 10 -4 15 4 7 7 110 4 180 0 8 1
36 3 63 2 26 1 47 -2 47 -3 0 -4 19 -2 42 6 88 4 236 -2 247 -4 6 -4 16 0 23
10 16 11 168 1 168 -5 0 -6 4 -3 9 5 8 10 146 6 166 -1 6 -2 14 -1 18 1 5 1
43 1 85 -1 112 -1 118 1 223 1 53 -2 102 -5 108 -4 6 -4 16 0 23 10 16 11 68
1 68 -5 0 -5 5 -1 11 9 15 9 203 0 218 -4 6 -4 16 0 23 10 16 11 68 1 68 -5 0
-5 5 -1 11 9 15 9 203 0 218 -4 6 -4 16 0 23 10 16 11 68 1 68 -5 0 -5 5 -1
11 9 15 9 203 0 218 -4 6 -4 16 0 23 10 16 11 68 1 68 -5 0 -5 5 -1 11 9 15 9
203 0 218 -4 6 -4 16 0 23 10 16 11 68 1 68 -5 0 -5 5 -1 11 9 15 9 203 0 218
-4 6 -4 16 0 22 3 6 8 30 10 52 6 82 29 98 147 101 32 1 61 -2 63 -6 3 -4 16
-3 30 2 16 7 23 7 19 0 -3 -5 0 -7 7 -5 8 3 54 7 103 9 50 2 100 4 111 5 15 1
28 14 40 39 15 31 18 68 19 247 1 238 -3 269 -43 283 -15 5 -121 9 -237 10
-259 0 -247 -1 -205 22 109 58 226 223 256 361 49 228 -5 381 -158 449 -205
90 -453 -17 -580 -250 -54 -99 -70 -169 -70 -305 0 -113 43 -206 120 -257 l27
-18 -25 -1 c-122 -3 -470 -3 -470 1 0 3 22 28 48 56 61 66 117 171 101 190
-23 28 -53 16 -73 -29 -42 -91 -107 -157 -153 -157 -29 0 -42 61 -21 96 4 6 9
21 12 35 3 13 7 35 10 49 3 14 9 41 13 60 10 48 10 50 13 53 1 1 4 11 5 22 2
11 14 65 28 120 14 55 28 111 31 125 3 14 15 67 27 117 12 51 19 96 15 100 -8
8 -272 13 -293 5 -14 -4 -18 -81 -5 -83 4 -1 32 -3 62 -4 30 -2 58 -3 63 -4 4
-1 5 -16 1 -33 -8 -45 -12 -63 -14 -63 -1 0 -4 -11 -6 -25 -3 -14 -14 -63 -25
-110 -11 -47 -22 -96 -25 -110 -2 -14 -7 -36 -11 -50 -4 -14 -8 -32 -9 -40 -1
-8 -5 -24 -8 -35 -46 -186 -48 -210 -31 -266 5 -15 -1 -23 -28 -34 -23 -9 -38
-25 -45 -44 -6 -16 -11 -124 -12 -240 -1 -245 3 -260 73 -284 25 -8 50 -11 57
-7 7 5 20 6 27 3 20 -8 193 -9 193 -2 0 3 12 4 28 2 15 -2 52 -4 82 -4 78 -1
95 -11 107 -57 6 -22 7 -46 2 -53 -4 -7 -5 -17 -2 -23 8 -13 7 -461 -1 -474
-3 -6 -3 -13 2 -16 6 -4 8 -111 2 -141 -1 -5 -1 -14 0 -20 1 -9 2 -492 1 -537
-1 -12 -9 -18 -26 -18 -18 0 -25 -5 -25 -20 0 -15 7 -20 26 -20 21 0 25 -4 21
-20 -3 -11 -1 -22 4 -25 4 -3 6 -11 4 -18 -2 -7 -7 -36 -10 -66 -9 -92 -39
-105 -102 -43 -32 31 -111 119 -142 158 -5 6 -7 23 -4 37 5 24 2 27 -24 27
-23 0 -38 10 -65 43 -20 23 -44 51 -55 63 -10 12 -43 50 -73 84 -30 35 -59 68
-65 74 -5 6 -39 45 -75 86 -36 41 -69 80 -75 86 -5 6 -29 33 -52 61 -24 27
-53 61 -65 74 -13 14 -45 51 -73 83 -27 33 -61 71 -75 86 -14 15 -41 47 -60
70 -19 24 -40 48 -46 54 -6 6 -59 67 -118 136 -60 69 -125 143 -145 166 -20
22 -61 69 -91 104 -30 35 -71 82 -91 105 -20 22 -49 55 -65 74 -16 19 -51 60
-79 92 -120 136 -161 183 -175 201 -8 11 -39 45 -67 75 -29 30 -53 56 -53 57
0 2 16 3 35 4 166 6 354 161 425 350 39 104 54 229 36 312 -9 43 -42 112 -67
139 -21 22 -109 85 -109 77 0 -3 -16 2 -36 10 -44 18 -168 17 -232 -2 -144
-44 -270 -168 -337 -331 -34 -85 -40 -121 -39 -238 0 -76 5 -108 18 -135 29
-55 66 -100 100 -121 l31 -19 -50 -1 c-27 0 -141 -2 -252 -2 l-202 -2 22 25
c12 13 29 31 37 40 43 42 100 142 100 175 0 16 -7 21 -28 23 -24 2 -30 -3 -42
-33 -8 -19 -17 -35 -22 -35 -4 0 -8 -6 -8 -12 0 -26 -84 -106 -117 -113 -29
-6 -33 -4 -39 19 -3 14 -1 40 5 58 8 27 51 187 66 248 15 57 37 137 42 150 3
8 7 22 8 30 2 8 6 33 10 55 12 68 12 129 0 158 -12 28 -48 59 -75 65 -120 23
-189 4 -264 -73 -57 -60 -65 -69 -90 -108 -26 -39 -36 -33 -36 21 0 62 -35
132 -75 152 -40 19 -119 21 -168 4 -56 -20 -120 -75 -180 -155 -28 -38 -52
-67 -54 -65 -3 2 7 56 21 116 19 77 18 97 0 101 -11 3 -77 4 -147 4 -132 -1
-149 -6 -142 -44 2 -9 4 -24 4 -34 1 -15 9 -18 44 -17 88 4 89 3 82 -32 -4
-18 -8 -42 -10 -53 -2 -11 -4 -21 -5 -22 -2 -2 -3 -6 -4 -10 -6 -22 -27 -123
-32 -148 -3 -16 -7 -32 -9 -35 -2 -4 -7 -22 -10 -41 -9 -46 -13 -64 -15 -64
-2 0 -4 -10 -18 -75 -6 -25 -13 -54 -15 -65 -3 -11 -11 -49 -18 -85 -15 -77
-15 -76 -32 -61 -11 9 -17 8 -27 -4 -10 -13 -10 -19 4 -33 9 -10 16 -20 16
-23 0 -3 -196 -3 -234 0 -5 1 6 16 25 34 94 86 175 226 205 352 1 6 5 24 9 40
13 53 8 295 -6 313 -1 1 -2 5 -3 10 -12 52 -59 161 -93 215 -13 21 -22 41 -19
46 5 7 9 23 21 86 3 17 10 46 15 65 19 70 27 67 -151 69 -112 1 -171 5 -193
15 -47 21 -89 36 -113 41 -13 3 -33 8 -45 11 -53 13 -225 12 -293 -2z m-1494
-511 c40 -17 57 -64 54 -147 -4 -88 -8 -104 -38 -169 -27 -58 -76 -113 -123
-139 -28 -16 -78 -21 -137 -16 -28 2 -77 56 -78 86 -6 116 1 159 41 235 68
130 182 191 281 150z m4520 -24 c52 -37 72 -100 73 -229 1 -112 -21 -202 -71
-304 -37 -74 -132 -176 -164 -176 -10 0 -20 -4 -23 -8 -3 -5 -26 -9 -51 -11
-66 -3 -111 27 -142 97 -44 100 -28 313 32 428 8 16 15 33 15 37 0 12 75 110
103 134 74 63 167 76 228 32z m2369 3 c44 -32 74 -106 74 -189 1 -40 5 -73 9
-73 5 0 5 -5 1 -11 -4 -6 -8 -23 -9 -38 -4 -39 -15 -93 -21 -103 -3 -4 -7 -18
-9 -30 -11 -55 -71 -156 -125 -208 -138 -137 -286 -95 -316 90 -31 199 64 462
200 548 71 45 145 50 196 14z m-7915 -12 c30 -33 26 -82 -15 -245 -6 -22 -13
-51 -16 -64 -3 -14 -7 -28 -10 -33 -3 -4 -7 -17 -10 -28 -10 -45 -13 -59 -39
-155 -32 -116 -38 -170 -24 -197 6 -11 8 -22 6 -25 -7 -6 -397 -7 -403 0 -4 3
2 41 12 84 9 43 19 87 21 98 6 33 45 169 51 180 4 6 7 12 7 15 2 18 75 148
109 193 75 101 132 155 187 180 63 29 96 28 124 -3z m4500 18 c14 -6 25 -16
26 -22 3 -29 -4 -68 -26 -148 -14 -47 -27 -97 -29 -110 -3 -12 -5 -24 -5 -25
-1 -2 0 -4 1 -5 1 -2 -4 -13 -10 -24 -6 -12 -14 -34 -16 -50 -3 -16 -20 -78
-37 -139 -32 -112 -44 -211 -28 -221 5 -3 9 -11 9 -17 0 -9 -38 -12 -142 -10
-219 2 -200 0 -193 24 4 12 9 29 10 38 2 9 4 17 5 19 2 1 3 5 4 10 1 4 10 43
20 87 10 44 21 85 24 90 4 6 8 18 9 27 9 56 122 301 158 344 6 6 28 33 50 58
42 51 63 65 110 77 17 4 31 7 32 8 1 1 14 -4 28 -11z"/>
<path d="M16437 13324 c-1 -2 -18 -6 -37 -9 -58 -10 -150 -37 -156 -46 -3 -5
-11 -9 -19 -9 -15 0 -97 -48 -160 -94 -62 -46 -146 -147 -192 -234 -84 -155
-108 -338 -69 -520 13 -61 58 -170 88 -214 10 -14 15 -32 12 -40 -4 -7 -35
-40 -70 -72 l-64 -59 -247 1 c-137 0 -257 1 -268 1 -16 1 -12 6 15 22 83 49
130 134 123 224 -8 107 -60 166 -213 240 -41 20 -94 45 -118 57 -52 25 -90 62
-94 91 -15 94 81 158 229 152 106 -4 157 -42 116 -88 -46 -50 -49 -96 -8 -123
68 -44 142 -7 149 75 7 86 -33 147 -124 188 -44 20 -71 24 -140 24 -47 1 -92
-1 -100 -4 -146 -39 -204 -77 -245 -158 -28 -53 -27 -124 0 -177 17 -33 99
-101 123 -102 6 0 12 -4 12 -10 0 -5 5 -10 11 -10 9 0 94 -37 164 -71 90 -45
122 -133 73 -205 -18 -26 -67 -65 -88 -70 -3 0 -12 -4 -20 -7 -24 -11 -103
-23 -130 -20 -72 7 -90 11 -126 30 -46 23 -67 58 -53 85 5 10 16 18 24 18 24
0 46 44 40 80 -16 92 -142 91 -179 -2 -28 -69 -5 -151 59 -207 33 -29 34 -31
13 -32 -31 -1 -370 -1 -386 0 -7 1 2 16 20 35 44 44 64 70 79 98 6 13 15 25
18 28 3 3 12 22 20 44 11 32 11 40 0 47 -29 18 -47 8 -72 -41 -39 -74 -86
-128 -123 -140 -67 -22 -68 -4 -14 197 22 81 42 155 44 163 2 8 6 22 9 30 3 8
9 29 13 45 4 17 8 32 9 35 7 24 19 102 20 130 3 77 -36 149 -95 172 -73 28
-181 17 -245 -26 -48 -33 -124 -110 -159 -163 -33 -50 -40 -53 -33 -15 3 15 8
43 12 62 3 19 12 59 20 88 13 51 13 52 -8 53 -24 1 -240 1 -270 0 -15 -1 -18
-8 -15 -43 l3 -43 63 -3 c34 -2 62 -7 62 -12 0 -5 -14 -69 -30 -142 -17 -73
-33 -144 -36 -158 -3 -14 -11 -50 -19 -80 -13 -53 -72 -312 -81 -357 -3 -16 3
-23 25 -31 16 -6 32 -7 36 -4 3 4 21 5 39 4 43 -4 46 4 92 218 3 14 12 50 20
80 9 30 16 61 16 68 1 6 5 12 10 12 4 0 8 6 8 14 0 16 52 119 93 184 40 63 77
104 148 167 36 32 125 73 112 52 -5 -9 -3 -9 8 -1 16 13 48 4 67 -18 21 -26
17 -87 -13 -208 -3 -11 -7 -30 -10 -41 -2 -12 -9 -36 -15 -54 -6 -18 -12 -41
-14 -51 -2 -10 -15 -59 -29 -109 -14 -49 -29 -106 -33 -125 -10 -43 -11 -48
-14 -57 -5 -16 2 -69 11 -85 7 -13 6 -18 -3 -19 -7 0 -68 -1 -135 -2 -111 -2
-125 -5 -145 -24 -14 -14 -22 -36 -24 -62 -1 -22 -5 -44 -8 -50 -4 -5 -2 -12
2 -15 10 -6 8 -48 -2 -65 -4 -5 -2 -12 2 -15 8 -5 9 -29 2 -61 -1 -5 -2 -12
-1 -15 1 -3 3 -58 4 -122 2 -139 8 -149 89 -155 96 -7 228 -8 228 -2 0 3 12 4
28 2 15 -2 54 -4 87 -4 88 -1 111 -8 124 -35 7 -17 11 -120 11 -303 l0 -277
-24 -21 c-13 -12 -27 -19 -30 -16 -3 4 -6 1 -6 -5 0 -6 -18 -21 -40 -33 -33
-19 -37 -25 -29 -41 9 -17 12 -16 52 10 23 15 48 33 55 39 7 7 15 13 18 13 6
0 4 -1972 -2 -1997 -3 -12 -13 -25 -22 -29 -10 -4 -129 -8 -265 -9 -254 -2
-267 -4 -274 -42 -6 -31 -3 -486 3 -509 3 -13 16 -26 27 -30 38 -12 3760 -8
3783 4 15 8 21 23 23 59 2 26 3 366 3 755 1 647 -1 709 -16 733 l-17 26 -249
-1 c-182 -1 -251 -5 -259 -13 -13 -16 -20 -76 -26 -212 -5 -124 -9 -148 -50
-330 -48 -216 -220 -374 -445 -410 -19 -3 -42 -8 -50 -10 -64 -18 -1033 -30
-1098 -13 -18 5 -32 16 -35 30 -4 12 -6 248 -7 523 0 458 1 503 17 535 26 51
53 61 168 59 55 -1 104 -5 110 -7 5 -3 19 -7 31 -8 96 -10 258 -151 317 -275
49 -104 52 -111 62 -174 8 -52 23 -107 33 -122 14 -23 58 -29 192 -28 179 2
196 6 206 53 5 20 9 379 8 796 l-1 759 -28 23 c-26 21 -36 22 -189 20 -88 0
-167 -5 -174 -9 -16 -10 -30 -45 -37 -90 -10 -64 -28 -130 -41 -156 -8 -14
-14 -30 -14 -35 0 -20 -95 -148 -136 -185 -49 -43 -115 -79 -160 -87 -15 -3
-34 -8 -43 -13 -9 -4 -70 -8 -136 -10 -128 -2 -164 7 -173 44 -9 38 -8 970 1
997 15 45 50 62 125 59 41 -1 44 -1 122 -1 36 0 72 0 80 0 8 0 44 0 80 0 36 0
72 0 80 0 8 -1 62 0 118 2 57 2 106 0 108 -4 3 -4 16 -3 30 2 18 7 23 7 18 -2
-4 -6 -3 -8 4 -5 34 22 346 3 457 -27 6 -2 24 -6 40 -11 17 -4 35 -10 40 -14
6 -3 15 -6 21 -7 21 -3 99 -58 135 -94 93 -93 149 -266 164 -505 9 -138 14
-164 38 -179 17 -11 75 -13 264 -12 133 0 245 5 250 9 4 5 8 321 8 703 l0 694
30 6 c46 10 145 88 145 114 0 5 3 10 8 10 9 0 55 75 72 118 11 29 11 35 -1 43
-31 19 -48 9 -74 -46 -46 -93 -137 -167 -168 -136 -11 11 4 113 26 171 4 13
14 51 31 120 2 8 11 42 20 75 9 33 19 68 21 78 2 9 6 20 8 25 6 9 20 108 20
142 1 61 -16 101 -54 134 -44 37 -41 36 -134 40 -90 4 -147 -23 -232 -110
l-62 -64 -10 35 c-5 19 -7 54 -4 80 4 41 -1 51 -23 43 -3 -2 -17 19 -31 47
-31 59 -95 149 -138 190 -45 44 -119 105 -126 105 -4 0 -10 11 -13 25 -5 21
-12 25 -42 25 -34 0 -133 28 -144 41 -3 3 -12 6 -20 6 -8 1 -31 4 -50 8 -35 7
-217 15 -223 9z m1126 -530 c4 -1 12 -2 19 -3 6 0 8 -4 5 -8 -4 -3 -3 -11 2
-17 13 -17 20 -56 10 -56 -4 0 -6 -6 -3 -14 6 -15 -22 -140 -57 -255 -10 -34
-21 -73 -23 -85 -11 -48 -20 -83 -29 -106 -25 -66 -35 -168 -18 -197 14 -27
36 -24 -222 -25 -92 -1 -170 2 -173 5 -12 12 6 53 47 107 67 89 119 207 135
306 3 22 8 46 9 54 2 8 4 36 4 61 1 34 8 54 29 79 36 44 90 97 127 125 32 24
103 46 120 36 6 -3 13 -6 18 -7z m-1613 -673 c0 -4 16 -25 35 -45 19 -21 35
-40 35 -44 0 -5 -135 -7 -183 -3 -4 1 14 23 40 50 45 46 73 62 73 42z"/>
<path d="M2416 13275 c-11 -8 -40 -32 -64 -52 -25 -21 -52 -43 -61 -50 -14
-10 -14 -13 -1 -26 13 -13 24 -7 92 48 65 53 75 65 65 78 -11 14 -14 14 -31 2z"/>
<path d="M2711 13259 c-18 -11 -33 -30 -37 -46 -3 -15 -7 -32 -9 -38 -6 -21
38 -84 64 -91 14 -4 30 -6 34 -6 4 1 16 4 26 5 73 11 98 110 43 165 -13 12
-28 23 -35 23 -7 1 -22 3 -34 4 -12 1 -36 -6 -52 -16z"/>
<path d="M4210 13269 c-14 -5 -34 -22 -43 -38 -26 -44 -22 -84 12 -120 38 -40
92 -43 135 -6 40 34 43 103 6 139 -28 28 -73 38 -110 25z"/>
<path d="M12188 13263 c-55 -34 -65 -108 -19 -154 16 -16 37 -30 45 -30 9 -1
22 -2 29 -3 39 -6 97 52 97 98 0 79 -86 129 -152 89z"/>
<path d="M11548 13056 c-16 -8 -28 -12 -28 -9 0 3 -6 1 -12 -4 -7 -6 -25 -13
-40 -17 -19 -4 -28 -13 -28 -26 0 -28 -23 -114 -33 -121 -4 -3 -37 -5 -73 -4
-72 2 -92 -9 -88 -47 1 -12 3 -28 3 -35 1 -9 21 -12 67 -10 36 1 68 -1 71 -6
3 -4 -3 -41 -12 -82 -9 -41 -16 -77 -16 -80 0 -2 -6 -23 -14 -45 -8 -22 -13
-40 -11 -40 2 0 -9 -50 -24 -112 -16 -61 -27 -115 -24 -120 3 -4 1 -8 -4 -8
-5 0 -9 -6 -9 -12 -1 -19 -11 -68 -22 -105 -5 -18 -7 -33 -4 -33 3 0 1 -6 -5
-12 -7 -9 -5 -28 6 -62 22 -64 60 -86 141 -81 78 5 98 10 140 42 46 34 79 69
102 107 25 41 24 53 -7 60 -22 6 -34 -1 -75 -42 -55 -56 -119 -81 -140 -56
-13 16 -11 32 26 189 15 61 28 119 30 130 16 85 79 352 85 358 4 5 52 9 106
10 l99 2 3 37 c4 48 -10 54 -111 53 l-79 -1 7 30 c4 17 9 45 11 61 3 17 7 37
10 45 3 8 8 25 10 38 5 26 -17 29 -58 8z"/>
<path d="M3205 12882 c-16 -8 -35 -20 -42 -26 -7 -6 -30 -24 -52 -41 -22 -16
-52 -52 -66 -78 -25 -44 -27 -56 -22 -120 4 -45 18 -104 37 -157 42 -112 61
-170 66 -200 7 -46 7 -118 -1 -129 -7 -12 -16 -59 -19 -95 -1 -11 11 -25 32
-36 33 -18 34 -18 85 7 175 88 361 231 478 369 49 58 99 174 105 244 16 181
-105 314 -231 254 -54 -25 -66 -103 -23 -144 27 -25 48 -25 97 -1 56 29 66 17
66 -76 -1 -70 -20 -142 -45 -163 -3 -3 -14 -18 -24 -35 -38 -58 -137 -157
-221 -221 -27 -21 -51 -42 -53 -46 -2 -4 -10 -8 -18 -8 -8 0 -14 -3 -14 -7 0
-5 -13 -15 -29 -25 l-30 -16 2 86 c1 111 -11 185 -44 267 -69 173 -67 270 5
332 29 25 31 35 16 64 -12 22 -15 22 -55 1z"/>
<path d="M3963 12863 c-2 -6 -3 -26 -1 -45 l3 -33 64 -2 c35 -1 65 -4 68 -6 2
-3 0 -22 -6 -43 -5 -22 -12 -56 -15 -78 -4 -21 -8 -42 -11 -46 -3 -5 -28 -107
-50 -210 -2 -8 -11 -46 -20 -85 -9 -38 -18 -79 -20 -90 -2 -11 -8 -36 -12 -55
-14 -54 -3 -131 20 -154 36 -36 122 -39 187 -6 83 42 226 247 189 271 -29 19
-52 4 -83 -54 -53 -99 -125 -157 -160 -128 -18 15 -15 33 23 191 60 251 83
346 87 370 3 14 8 34 11 45 4 11 7 22 8 25 0 3 7 33 14 68 8 34 11 65 7 69
-12 12 -298 9 -303 -4z"/>
<path d="M19977 12114 c-1 -1 -38 -5 -82 -9 -44 -4 -87 -9 -97 -10 -9 -2 -38
-7 -65 -11 -26 -3 -57 -8 -68 -11 -11 -2 -31 -6 -45 -9 -14 -3 -43 -10 -65
-16 -22 -5 -47 -11 -56 -13 -142 -28 -427 -145 -545 -225 -25 -16 -47 -30 -50
-30 -11 0 -149 -107 -190 -148 -13 -13 -24 -21 -24 -19 0 3 -35 -32 -77 -76
-100 -104 -99 -102 -131 -145 -15 -21 -30 -39 -33 -42 -10 -8 -101 -149 -132
-205 -54 -97 -142 -307 -153 -363 -3 -13 -11 -42 -19 -65 -13 -40 -48 -203
-60 -277 -14 -88 -19 -198 -19 -360 0 -195 7 -290 30 -410 3 -14 7 -41 10 -60
2 -19 8 -46 13 -60 5 -14 14 -47 21 -75 32 -140 140 -396 219 -520 33 -51 119
-171 150 -210 57 -69 244 -244 317 -297 92 -66 209 -138 224 -138 5 0 10 -4
10 -10 0 -5 9 -10 19 -10 11 0 21 -4 23 -8 8 -22 335 -137 473 -167 57 -13
131 -27 153 -30 15 -2 41 -6 57 -9 77 -13 194 -19 355 -20 157 0 234 4 365 20
34 4 249 48 280 57 6 2 37 11 70 21 121 35 396 152 440 188 5 4 44 30 85 57
211 139 379 305 512 505 26 39 52 76 56 81 55 66 198 411 226 545 3 14 10 44
16 68 5 23 13 59 16 80 3 20 8 51 11 67 3 17 7 44 10 60 3 17 6 134 8 260 2
221 -5 311 -40 503 -7 38 -62 239 -72 262 -3 8 -7 18 -8 23 -2 4 -4 9 -5 12
-1 3 -3 8 -5 13 -14 51 -105 246 -116 250 -5 2 -9 10 -9 18 0 29 -151 242
-240 338 -258 280 -545 449 -935 551 -55 14 -113 28 -130 30 -16 3 -41 7 -55
10 -62 12 -77 15 -115 20 -111 14 -165 17 -338 19 -103 2 -188 2 -190 0z m314
-568 c107 -17 249 -69 326 -119 27 -17 78 -61 115 -97 65 -64 158 -190 158
-215 0 -8 3 -15 8 -17 6 -3 22 -37 68 -143 31 -73 70 -216 80 -295 1 -14 8
-52 14 -85 6 -33 13 -82 15 -110 3 -27 8 -79 11 -115 12 -112 6 -635 -6 -635
-1 0 -3 -11 -5 -25 -12 -117 -28 -220 -49 -319 -6 -26 -24 -87 -33 -111 -4 -8
-7 -17 -8 -20 -15 -61 -83 -205 -130 -280 -41 -65 -160 -181 -230 -223 -60
-37 -205 -94 -254 -101 -113 -16 -146 -19 -216 -19 -121 0 -192 10 -280 39
-155 51 -286 143 -385 270 -98 126 -210 405 -235 589 -3 22 -9 54 -12 70 -9
46 -18 120 -30 260 -8 93 -8 376 0 495 8 122 45 364 68 445 53 189 125 348
203 450 100 132 264 248 396 281 8 2 33 8 55 14 22 5 65 13 95 16 30 4 56 7
58 9 5 4 161 -3 203 -9z"/>
<path d="M14046 10595 c-8 -8 -17 -15 -20 -15 -5 0 -101 -56 -115 -67 -2 -1 1
-9 8 -17 10 -12 21 -9 74 20 84 47 111 69 103 83 -10 15 -32 14 -50 -4z"/>
<path d="M13660 10389 c-36 -17 -75 -35 -87 -40 -15 -5 -21 -14 -17 -24 8 -21
14 -20 108 21 69 30 83 40 79 55 -7 24 -6 24 -83 -12z"/>
<path d="M13268 10236 c-68 -22 -88 -33 -88 -48 0 -10 4 -18 8 -18 8 0 91 25
122 37 8 4 17 7 20 8 50 13 61 25 38 42 -8 5 -45 -2 -100 -21z"/>
</g>
</svg>
